<svg xmlns="http://www.w3.org/2000/svg" width="1200" height="1200" viewBox="0 0 1200 1200" version="1.1"><path d="M 876 23.554 C 850.509 29.023, 823.066 46.072, 811.814 63.428 C 803.951 75.556, 803.686 77.382, 803.231 122.578 L 802.828 162.657 790.664 157.439 C 753.536 141.514, 707.622 129.613, 663.500 124.479 C 634.812 121.141, 591.462 121.409, 561 125.113 C 457.409 137.710, 363.485 183.787, 290.866 257.635 C 274.017 274.768, 266.118 283.825, 253.474 300.500 C 211.949 355.267, 183.198 419.056, 170.092 485.500 C 166.170 505.385, 164.323 519.099, 162.516 541.735 C 161.693 552.056, 160.580 565.225, 160.043 571 C 158.748 584.937, 158.748 610.293, 160.044 623.144 C 161.643 638.995, 165.597 657.139, 170.581 671.500 C 173.063 678.650, 176.840 690.350, 178.974 697.500 C 187.859 727.272, 197.194 750.650, 211.291 778.435 C 216.591 788.881, 219.926 796.525, 219.278 796.741 C 214.698 798.267, 195.759 813.054, 186.403 822.406 C 159.393 849.409, 149.377 875.036, 154.467 904.119 C 160.087 936.238, 175.201 957.113, 202.849 970.945 C 222.658 980.855, 242.256 985.350, 265.500 985.315 C 300.680 985.262, 329.853 974.913, 363.620 950.507 C 364.565 949.824, 365.696 949.960, 367.247 950.942 C 430.131 990.787, 493.820 1013.334, 567.083 1021.690 C 589.117 1024.203, 639.221 1024.195, 662 1021.674 C 827.247 1003.388, 967.395 900.177, 1031.873 749.284 C 1079.886 636.921, 1079.886 509.079, 1031.873 396.716 C 1003.894 331.239, 962.291 275.137, 906.905 228.195 L 898.310 220.910 901.149 201.705 C 903.929 182.892, 910.018 146.305, 921.953 76.680 C 925.581 55.514, 927.687 40.613, 927.322 38.680 C 925.895 31.110, 920.262 26.085, 910.294 23.488 C 903.116 21.619, 884.855 21.654, 876 23.554 M 590 139.072 C 546.812 141.372, 500.179 151.390, 458.404 167.343 C 383.801 195.833, 319.816 242.940, 270.067 306 C 260.986 317.511, 242.097 345.651, 234.535 358.935 C 226.867 372.404, 214.395 398.399, 208.836 412.500 C 203.241 426.688, 196.830 445.164, 197.328 445.662 C 197.500 445.834, 200.375 441.818, 203.717 436.737 C 216.055 417.978, 232.744 400.360, 247.974 390.017 C 256.999 383.889, 269.601 378.250, 280.794 375.332 C 294.384 371.790, 313.911 371.554, 325.285 374.795 C 341.989 379.554, 358.476 390.229, 373 405.689 C 379.773 412.898, 390.343 427.943, 392.199 433.017 C 392.365 433.469, 394.525 433.445, 397 432.963 C 404.236 431.554, 420.459 431.871, 428.746 433.583 C 444.858 436.911, 456.319 444.956, 461.772 456.764 C 464.060 461.718, 464.417 463.795, 464.390 472 C 464.373 477.225, 463.612 488.925, 462.700 498 C 459.059 534.232, 457.412 562.282, 456.035 611.500 C 455.481 631.300, 454.737 655.263, 454.382 664.750 C 454.028 674.237, 453.974 682, 454.264 682 C 455.206 682, 470.593 660.798, 478.213 649 C 482.299 642.675, 488.617 632.325, 492.254 626 L 498.867 614.500 497.777 609.500 C 495.979 601.257, 496.316 560.356, 498.289 547.279 C 505.874 497.011, 523.805 457.987, 553.492 427.139 C 575.264 404.516, 596.510 393.956, 623.500 392.345 C 647.977 390.884, 678.701 397.844, 698.189 409.265 C 711.466 417.046, 729.728 434.763, 739.267 449.117 C 753.889 471.121, 763.576 498.893, 766.956 528.500 C 768.267 539.984, 768.278 564.862, 766.978 576.500 C 762.062 620.490, 744.755 658.270, 716.544 686.591 C 699.718 703.482, 685.562 712.919, 668 718.951 C 639.091 728.881, 600.895 728.083, 572.015 716.946 C 556.105 710.810, 534.824 693.735, 525 679.222 C 523.075 676.378, 521.215 674.040, 520.867 674.026 C 520.520 674.012, 518.270 677.032, 515.867 680.737 C 509.812 690.077, 491.391 714.511, 482.180 725.421 C 477.964 730.414, 468.607 740.575, 461.386 748 L 448.257 761.500 447.564 767.500 C 445.241 787.599, 435.232 831.292, 427.947 853.132 C 417.531 884.361, 402.602 911.497, 385.056 931.094 C 381.216 935.383, 379.104 938.504, 379.664 939.064 C 381.647 941.047, 403.197 953.424, 416 959.933 C 527.557 1016.648, 659.068 1022.763, 776 976.671 C 875.975 937.263, 958.004 862, 1006.365 765.306 C 1032.796 712.460, 1048.110 653.094, 1050.878 592.741 C 1056.546 469.194, 1009.812 350.775, 920.877 263.331 C 906.315 249.012, 896.779 240.789, 895.894 241.786 C 894.675 243.159, 888.118 300.039, 885.032 336 C 880.999 383.009, 879.781 434.991, 882.067 462.607 C 882.978 473.614, 882.911 476.031, 881.604 479.130 C 878.633 486.176, 868.981 491.909, 855.445 494.670 C 840.170 497.785, 826.444 492.273, 823.110 481.688 C 821.455 476.433, 816.556 441.411, 813.996 416.539 C 808.755 365.608, 804.612 278.217, 803.707 199.500 L 803.500 181.500 797 178.320 C 789.104 174.458, 767.606 165.807, 756 161.822 C 719.925 149.434, 676.691 141.117, 637.500 139.025 C 616.726 137.916, 611.616 137.921, 590 139.072 M 578 149.547 C 542.989 152.925, 515.853 158.687, 482 169.932 C 400.636 196.957, 327.417 250.022, 276.318 319 C 268.180 329.985, 253.681 351.892, 249.023 360.239 L 245.821 365.979 252.161 363.060 C 255.647 361.456, 260.155 359.472, 262.179 358.652 C 265.137 357.453, 267.163 355.150, 272.529 346.881 C 300.918 303.133, 342.105 261.397, 386.501 231.390 C 474.358 172.007, 580.932 148.984, 686.674 166.545 C 713.943 171.073, 744.313 179.611, 769.750 189.898 L 782 194.853 782 187.891 L 782 180.929 777.345 178.934 C 743.817 164.562, 698.420 153.593, 655.589 149.515 C 636.323 147.680, 597.173 147.697, 578 149.547 M 912.527 276.554 L 911.819 284.109 919.706 292.804 C 944.640 320.298, 960.266 341.800, 977.259 372 C 1033.943 472.744, 1045.115 596.199, 1007.484 706 C 978.905 789.392, 925.281 860.332, 852 911.693 C 819.956 934.152, 781.176 953.239, 742 965.833 C 680.655 985.554, 612.334 990.125, 546.200 978.933 C 507.473 972.378, 467.569 959.002, 430.500 940.147 C 421.150 935.391, 413.275 931.408, 413 931.296 C 412.725 931.184, 410.745 933.365, 408.600 936.144 C 405.473 940.193, 404.977 941.375, 406.100 942.100 C 406.870 942.597, 416.275 947.427, 427 952.833 C 506.826 993.072, 595.570 1006.648, 686 992.456 C 733.419 985.014, 785.146 966.754, 827.600 942.469 C 841.566 934.480, 866.557 917.668, 879.381 907.635 C 960.668 844.033, 1016.863 751.230, 1035.383 650 C 1040.693 620.976, 1041.488 610.967, 1041.494 573 C 1041.500 535.189, 1041.066 529.433, 1035.951 499.500 C 1021.904 417.313, 982.586 339.533, 924.623 279.269 C 919.191 273.621, 914.406 269, 913.991 269 C 913.575 269, 912.916 272.399, 912.527 276.554 M 309.214 428.751 C 295.158 434.486, 280.257 456.621, 268.655 489 C 250.477 539.729, 245.641 607.785, 257.096 651.673 C 263.162 674.911, 274.301 691.179, 287.204 695.640 C 294.899 698.301, 306.146 698.095, 312.138 695.183 C 317.548 692.555, 325.405 684.592, 329.511 677.577 C 332.719 672.096, 344.352 644.657, 349.681 630 C 361.400 597.766, 367.303 548.954, 363.950 512 C 360.072 469.268, 346.992 437.966, 329.489 429.533 C 324.014 426.895, 314.648 426.534, 309.214 428.751 M 626 443.307 C 617.645 445.941, 608.078 459.700, 602.012 477.805 C 588.605 517.821, 588.655 582.150, 602.124 622.500 C 606.002 634.117, 613.345 648.031, 618.815 654.129 C 627.999 664.365, 643.717 668.483, 653.643 663.252 C 665.538 656.983, 674.894 636.670, 679.553 607 C 682.045 591.128, 682.620 551.272, 680.617 533.273 C 677.589 506.067, 671.790 484.531, 662.679 466.656 C 652.519 446.724, 640.147 438.848, 626 443.307 M 834.365 595.493 C 801.962 602.540, 784.907 624.529, 784.719 659.500 C 784.606 680.477, 791.810 695.086, 809.562 709.880 C 823.176 721.225, 836.813 728.418, 852.584 732.571 C 862.877 735.281, 880.105 735.093, 890.443 732.156 C 912.971 725.758, 927.886 712.140, 933.438 692.904 C 939.037 673.501, 936.632 652.766, 926.877 636.325 C 922.595 629.108, 909.418 615.672, 901.119 610.062 C 892.462 604.209, 879.673 598.346, 870.374 595.968 C 861.264 593.638, 843.946 593.409, 834.365 595.493 M 347.935 725.851 C 334.765 739.167, 320.676 747.158, 304.500 750.485 C 273.477 756.867, 236.048 750.043, 214.500 734.078 C 206.792 728.367, 206.780 728.368, 209.067 734.184 C 215.258 749.929, 233.486 787, 235.036 787 C 235.489 787, 240.278 784.947, 245.679 782.439 C 273.816 769.371, 319.481 756.114, 345.856 753.357 C 349.274 753, 352.009 752.224, 352.021 751.608 C 352.032 750.998, 352.899 743.304, 353.947 734.509 C 354.994 725.714, 355.772 718.447, 355.676 718.360 C 355.579 718.273, 352.096 721.644, 347.935 725.851 M 501 834 L 501 888 545.500 888 L 590 888 590 876.500 L 590 865 558.500 865 L 527 865 527 822.500 L 527 780 514 780 L 501 780 501 834 M 603 834 L 603 888 616.500 888 L 630 888 630 834 L 630 780 616.500 780 L 603 780 603 834 M 640.259 781.250 C 641.908 785.610, 677 887.258, 677 887.677 C 677 887.887, 682.692 887.934, 689.649 887.780 L 702.297 887.500 708.073 870.500 C 711.249 861.150, 719.494 836.962, 726.394 816.750 L 738.940 780 726.220 780.013 L 713.500 780.026 702.583 815.513 C 696.579 835.031, 691.374 851, 691.016 851 C 690.658 851, 689.569 848.413, 688.595 845.250 C 687.621 842.087, 682.498 826.112, 677.211 809.750 L 667.597 780 653.691 780 C 642.982 780, 639.895 780.287, 640.259 781.250 M 749 834 L 749 888 792.500 888 L 836 888 836 877 L 836 866 805.467 866 L 774.934 866 775.217 854.750 L 775.500 843.500 799.750 843.232 L 824 842.964 824 832.482 L 824 822 799.500 822 L 775 822 775 812 L 775 802 805.500 802 L 836 802 836 791 L 836 780 792.500 780 L 749 780 749 834 M 329.095 805.602 C 314.205 809.478, 305.447 812.724, 291.500 819.538 C 274.568 827.809, 265.637 833.531, 266.703 835.424 C 268.781 839.113, 290.626 864.507, 300.992 875.283 L 312.603 887.354 315.311 882.733 C 326.441 863.741, 336.234 837.570, 341.872 811.750 L 343.783 803 341.141 803.077 C 339.689 803.120, 334.268 804.256, 329.095 805.602 M 250.354 849.259 C 235.551 866.166, 227.561 898.573, 234.750 912.545 C 237.698 918.274, 244.967 924.644, 250.159 926.048 C 256.939 927.883, 266.791 926.755, 274.151 923.303 C 281.481 919.865, 293.982 910.120, 298.845 904.053 L 302.190 899.880 290.186 887.690 C 277.512 874.820, 266.659 862.608, 258.691 852.250 C 256.047 848.813, 253.731 846, 253.545 846 C 253.359 846, 251.923 847.467, 250.354 849.259 M 242.045 1063.092 C 226.073 1066.223, 215 1079.082, 215 1094.500 C 215 1111.822, 223.710 1119.915, 250 1127.019 C 268.276 1131.958, 273.480 1135.985, 271.060 1143.317 C 269.341 1148.526, 264.977 1150.516, 255.500 1150.414 C 246.331 1150.315, 239.118 1147.963, 230.787 1142.356 C 227.935 1140.437, 225.269 1138.785, 224.861 1138.684 C 224.454 1138.583, 221.122 1142.089, 217.458 1146.475 L 210.795 1154.451 214.647 1157.711 C 220.047 1162.280, 231.232 1167.619, 239.500 1169.574 C 249.732 1171.993, 263.887 1171.755, 271.941 1169.030 C 287.484 1163.770, 294.541 1154.043, 294.454 1138 C 294.402 1128.400, 292.642 1123.850, 286.838 1118.319 C 281.215 1112.961, 275.760 1110.661, 251.833 1103.559 C 238.648 1099.645, 234.740 1093.680, 240.868 1086.822 C 243.434 1083.950, 244.427 1083.568, 250.277 1083.195 C 257.990 1082.704, 264.683 1084.565, 273.322 1089.604 C 276.524 1091.472, 279.294 1093, 279.478 1093 C 279.662 1093, 282.440 1089.133, 285.650 1084.407 L 291.488 1075.813 288.994 1073.762 C 284.757 1070.277, 272.787 1065.061, 265.471 1063.511 C 257.837 1061.894, 248.967 1061.736, 242.045 1063.092 M 924.634 1063.586 C 906.654 1067.938, 891.194 1083.131, 885.612 1101.932 C 883.536 1108.925, 883.494 1124.639, 885.531 1132.458 C 895.544 1170.899, 944.663 1184.373, 980.250 1158.442 L 985 1154.981 985 1131.990 L 985 1109 962 1109 L 939 1109 939 1119 L 939 1129 950.500 1129 L 962 1129 962 1136.801 L 962 1144.601 957.250 1146.968 C 953.628 1148.772, 950.328 1149.441, 943.354 1149.782 C 930.754 1150.398, 925.393 1148.553, 917.836 1140.996 C 913.002 1136.162, 911.822 1134.225, 909.942 1128.033 C 905.972 1114.965, 908.488 1102.850, 917.116 1093.490 C 924.573 1085.400, 933.215 1082.473, 944.798 1084.114 C 951.556 1085.071, 959.898 1088.654, 963.763 1092.262 C 965.152 1093.557, 966.373 1094.011, 966.924 1093.437 C 967.417 1092.922, 970.809 1088.900, 974.461 1084.500 L 981.100 1076.500 977.934 1073.830 C 973.346 1069.962, 963.378 1065.301, 955.947 1063.549 C 947.976 1061.670, 932.474 1061.689, 924.634 1063.586 M 433.080 1065.719 C 430.296 1071.818, 389 1169.056, 389 1169.512 C 389 1169.780, 394.321 1170, 400.825 1170 L 412.650 1170 417.425 1157.981 L 422.201 1145.963 444.789 1146.231 L 467.378 1146.500 471.999 1158 L 476.620 1169.500 488.887 1169.781 C 500.271 1170.043, 501.113 1169.935, 500.575 1168.281 C 500.256 1167.302, 490.127 1143.325, 478.066 1115 L 456.136 1063.500 445.242 1063.219 L 434.349 1062.938 433.080 1065.719 M 305 1074.500 L 305 1085 321.500 1085 L 338 1085 338 1127.500 L 338 1170 349.500 1170 L 361 1170 361 1127.500 L 361 1085 377.500 1085 L 394 1085 394 1074.500 L 394 1064 349.500 1064 L 305 1064 305 1074.500 M 518 1117 L 518 1170 529.500 1170 L 541 1170 541 1149.500 L 541 1129 566.500 1129 L 592 1129 592 1118.517 L 592 1108.034 566.750 1107.767 L 541.500 1107.500 541.217 1096.250 L 540.934 1085 569.967 1085 L 599 1085 599 1074.500 L 599 1064 558.500 1064 L 518 1064 518 1117 M 617 1117 L 617 1170 629 1170 L 641 1170 641 1149.500 L 641 1129 666.500 1129 L 692 1129 692 1118.500 L 692 1108 666.500 1108 L 641 1108 641 1096.500 L 641 1085 670 1085 L 699 1085 699 1074.500 L 699 1064 658 1064 L 617 1064 617 1117 M 718 1117 L 718 1170 730 1170 L 742 1170 742 1117 L 742 1064 730 1064 L 718 1064 718 1117 M 768 1117 L 768 1170 779.487 1170 L 790.973 1170 791.237 1136.285 L 791.500 1102.571 817 1136.227 L 842.500 1169.883 852.750 1169.942 L 863 1170 863 1117 L 863 1064 851.500 1064 L 840 1064 840 1096 C 840 1113.600, 839.663 1127.973, 839.250 1127.941 C 838.837 1127.909, 827.700 1113.533, 814.500 1095.994 L 790.500 1064.107 779.250 1064.053 L 768 1064 768 1117 M 438.053 1107.202 C 434.615 1115.616, 431.573 1123.063, 431.294 1123.750 C 430.902 1124.714, 433.903 1125, 444.393 1125 C 451.877 1125, 458 1124.625, 458 1124.168 C 458 1122.964, 445.935 1093.651, 445.048 1092.702 C 444.639 1092.263, 441.491 1098.788, 438.053 1107.202" stroke="none" fill="#62c146" fill-rule="evenodd"/><path d="M 0 600.001 L 0 1200.002 600.250 1199.751 L 1200.500 1199.500 1200.751 599.750 L 1201.002 0 600.501 0 L 0 0 0 600.001 M 0.497 600.500 C 0.497 930.500, 0.611 1065.649, 0.750 900.832 C 0.889 736.015, 0.889 466.015, 0.750 300.832 C 0.611 135.649, 0.497 270.500, 0.497 600.500 M 876 23.554 C 850.509 29.023, 823.066 46.072, 811.814 63.428 C 803.951 75.556, 803.686 77.382, 803.231 122.578 L 802.828 162.657 790.664 157.439 C 753.536 141.514, 707.622 129.613, 663.500 124.479 C 634.812 121.141, 591.462 121.409, 561 125.113 C 457.409 137.710, 363.485 183.787, 290.866 257.635 C 274.017 274.768, 266.118 283.825, 253.474 300.500 C 211.949 355.267, 183.198 419.056, 170.092 485.500 C 166.170 505.385, 164.323 519.099, 162.516 541.735 C 161.693 552.056, 160.580 565.225, 160.043 571 C 158.748 584.937, 158.748 610.293, 160.044 623.144 C 161.643 638.995, 165.597 657.139, 170.581 671.500 C 173.063 678.650, 176.840 690.350, 178.974 697.500 C 187.859 727.272, 197.194 750.650, 211.291 778.435 C 216.591 788.881, 219.926 796.525, 219.278 796.741 C 214.698 798.267, 195.759 813.054, 186.403 822.406 C 159.393 849.409, 149.377 875.036, 154.467 904.119 C 160.087 936.238, 175.201 957.113, 202.849 970.945 C 222.658 980.855, 242.256 985.350, 265.500 985.315 C 300.680 985.262, 329.853 974.913, 363.620 950.507 C 364.565 949.824, 365.696 949.960, 367.247 950.942 C 430.131 990.787, 493.820 1013.334, 567.083 1021.690 C 589.117 1024.203, 639.221 1024.195, 662 1021.674 C 827.247 1003.388, 967.395 900.177, 1031.873 749.284 C 1079.886 636.921, 1079.886 509.079, 1031.873 396.716 C 1003.894 331.239, 962.291 275.137, 906.905 228.195 L 898.310 220.910 901.149 201.705 C 903.929 182.892, 910.018 146.305, 921.953 76.680 C 925.581 55.514, 927.687 40.613, 927.322 38.680 C 925.895 31.110, 920.262 26.085, 910.294 23.488 C 903.116 21.619, 884.855 21.654, 876 23.554 M 590 139.072 C 546.812 141.372, 500.179 151.390, 458.404 167.343 C 383.801 195.833, 319.816 242.940, 270.067 306 C 260.986 317.511, 242.097 345.651, 234.535 358.935 C 226.867 372.404, 214.395 398.399, 208.836 412.500 C 203.241 426.688, 196.830 445.164, 197.328 445.662 C 197.500 445.834, 200.375 441.818, 203.717 436.737 C 216.055 417.978, 232.744 400.360, 247.974 390.017 C 256.999 383.889, 269.601 378.250, 280.794 375.332 C 294.384 371.790, 313.911 371.554, 325.285 374.795 C 341.989 379.554, 358.476 390.229, 373 405.689 C 379.773 412.898, 390.343 427.943, 392.199 433.017 C 392.365 433.469, 394.525 433.445, 397 432.963 C 404.236 431.554, 420.459 431.871, 428.746 433.583 C 444.858 436.911, 456.319 444.956, 461.772 456.764 C 464.060 461.718, 464.417 463.795, 464.390 472 C 464.373 477.225, 463.612 488.925, 462.700 498 C 459.059 534.232, 457.412 562.282, 456.035 611.500 C 455.481 631.300, 454.737 655.263, 454.382 664.750 C 454.028 674.237, 453.974 682, 454.264 682 C 455.206 682, 470.593 660.798, 478.213 649 C 482.299 642.675, 488.617 632.325, 492.254 626 L 498.867 614.500 497.777 609.500 C 495.979 601.257, 496.316 560.356, 498.289 547.279 C 505.874 497.011, 523.805 457.987, 553.492 427.139 C 575.264 404.516, 596.510 393.956, 623.500 392.345 C 647.977 390.884, 678.701 397.844, 698.189 409.265 C 711.466 417.046, 729.728 434.763, 739.267 449.117 C 753.889 471.121, 763.576 498.893, 766.956 528.500 C 768.267 539.984, 768.278 564.862, 766.978 576.500 C 762.062 620.490, 744.755 658.270, 716.544 686.591 C 699.718 703.482, 685.562 712.919, 668 718.951 C 639.091 728.881, 600.895 728.083, 572.015 716.946 C 556.105 710.810, 534.824 693.735, 525 679.222 C 523.075 676.378, 521.215 674.040, 520.867 674.026 C 520.520 674.012, 518.270 677.032, 515.867 680.737 C 509.812 690.077, 491.391 714.511, 482.180 725.421 C 477.964 730.414, 468.607 740.575, 461.386 748 L 448.257 761.500 447.564 767.500 C 445.241 787.599, 435.232 831.292, 427.947 853.132 C 417.531 884.361, 402.602 911.497, 385.056 931.094 C 381.216 935.383, 379.104 938.504, 379.664 939.064 C 381.647 941.047, 403.197 953.424, 416 959.933 C 527.557 1016.648, 659.068 1022.763, 776 976.671 C 875.975 937.263, 958.004 862, 1006.365 765.306 C 1032.796 712.460, 1048.110 653.094, 1050.878 592.741 C 1056.546 469.194, 1009.812 350.775, 920.877 263.331 C 906.315 249.012, 896.779 240.789, 895.894 241.786 C 894.675 243.159, 888.118 300.039, 885.032 336 C 880.999 383.009, 879.781 434.991, 882.067 462.607 C 882.978 473.614, 882.911 476.031, 881.604 479.130 C 878.633 486.176, 868.981 491.909, 855.445 494.670 C 840.170 497.785, 826.444 492.273, 823.110 481.688 C 821.455 476.433, 816.556 441.411, 813.996 416.539 C 808.755 365.608, 804.612 278.217, 803.707 199.500 L 803.500 181.500 797 178.320 C 789.104 174.458, 767.606 165.807, 756 161.822 C 719.925 149.434, 676.691 141.117, 637.500 139.025 C 616.726 137.916, 611.616 137.921, 590 139.072 M 578 149.547 C 542.989 152.925, 515.853 158.687, 482 169.932 C 400.636 196.957, 327.417 250.022, 276.318 319 C 268.180 329.985, 253.681 351.892, 249.023 360.239 L 245.821 365.979 252.161 363.060 C 255.647 361.456, 260.155 359.472, 262.179 358.652 C 265.137 357.453, 267.163 355.150, 272.529 346.881 C 300.918 303.133, 342.105 261.397, 386.501 231.390 C 474.358 172.007, 580.932 148.984, 686.674 166.545 C 713.943 171.073, 744.313 179.611, 769.750 189.898 L 782 194.853 782 187.891 L 782 180.929 777.345 178.934 C 743.817 164.562, 698.420 153.593, 655.589 149.515 C 636.323 147.680, 597.173 147.697, 578 149.547 M 912.527 276.554 L 911.819 284.109 919.706 292.804 C 944.640 320.298, 960.266 341.800, 977.259 372 C 1033.943 472.744, 1045.115 596.199, 1007.484 706 C 978.905 789.392, 925.281 860.332, 852 911.693 C 819.956 934.152, 781.176 953.239, 742 965.833 C 680.655 985.554, 612.334 990.125, 546.200 978.933 C 507.473 972.378, 467.569 959.002, 430.500 940.147 C 421.150 935.391, 413.275 931.408, 413 931.296 C 412.725 931.184, 410.745 933.365, 408.600 936.144 C 405.473 940.193, 404.977 941.375, 406.100 942.100 C 406.870 942.597, 416.275 947.427, 427 952.833 C 506.826 993.072, 595.570 1006.648, 686 992.456 C 733.419 985.014, 785.146 966.754, 827.600 942.469 C 841.566 934.480, 866.557 917.668, 879.381 907.635 C 960.668 844.033, 1016.863 751.230, 1035.383 650 C 1040.693 620.976, 1041.488 610.967, 1041.494 573 C 1041.500 535.189, 1041.066 529.433, 1035.951 499.500 C 1021.904 417.313, 982.586 339.533, 924.623 279.269 C 919.191 273.621, 914.406 269, 913.991 269 C 913.575 269, 912.916 272.399, 912.527 276.554 M 309.214 428.751 C 295.158 434.486, 280.257 456.621, 268.655 489 C 250.477 539.729, 245.641 607.785, 257.096 651.673 C 263.162 674.911, 274.301 691.179, 287.204 695.640 C 294.899 698.301, 306.146 698.095, 312.138 695.183 C 317.548 692.555, 325.405 684.592, 329.511 677.577 C 332.719 672.096, 344.352 644.657, 349.681 630 C 361.400 597.766, 367.303 548.954, 363.950 512 C 360.072 469.268, 346.992 437.966, 329.489 429.533 C 324.014 426.895, 314.648 426.534, 309.214 428.751 M 626 443.307 C 617.645 445.941, 608.078 459.700, 602.012 477.805 C 588.605 517.821, 588.655 582.150, 602.124 622.500 C 606.002 634.117, 613.345 648.031, 618.815 654.129 C 627.999 664.365, 643.717 668.483, 653.643 663.252 C 665.538 656.983, 674.894 636.670, 679.553 607 C 682.045 591.128, 682.620 551.272, 680.617 533.273 C 677.589 506.067, 671.790 484.531, 662.679 466.656 C 652.519 446.724, 640.147 438.848, 626 443.307 M 834.365 595.493 C 801.962 602.540, 784.907 624.529, 784.719 659.500 C 784.606 680.477, 791.810 695.086, 809.562 709.880 C 823.176 721.225, 836.813 728.418, 852.584 732.571 C 862.877 735.281, 880.105 735.093, 890.443 732.156 C 912.971 725.758, 927.886 712.140, 933.438 692.904 C 939.037 673.501, 936.632 652.766, 926.877 636.325 C 922.595 629.108, 909.418 615.672, 901.119 610.062 C 892.462 604.209, 879.673 598.346, 870.374 595.968 C 861.264 593.638, 843.946 593.409, 834.365 595.493 M 347.935 725.851 C 334.765 739.167, 320.676 747.158, 304.500 750.485 C 273.477 756.867, 236.048 750.043, 214.500 734.078 C 206.792 728.367, 206.780 728.368, 209.067 734.184 C 215.258 749.929, 233.486 787, 235.036 787 C 235.489 787, 240.278 784.947, 245.679 782.439 C 273.816 769.371, 319.481 756.114, 345.856 753.357 C 349.274 753, 352.009 752.224, 352.021 751.608 C 352.032 750.998, 352.899 743.304, 353.947 734.509 C 354.994 725.714, 355.772 718.447, 355.676 718.360 C 355.579 718.273, 352.096 721.644, 347.935 725.851 M 501 834 L 501 888 545.500 888 L 590 888 590 876.500 L 590 865 558.500 865 L 527 865 527 822.500 L 527 780 514 780 L 501 780 501 834 M 603 834 L 603 888 616.500 888 L 630 888 630 834 L 630 780 616.500 780 L 603 780 603 834 M 640.259 781.250 C 641.908 785.610, 677 887.258, 677 887.677 C 677 887.887, 682.692 887.934, 689.649 887.780 L 702.297 887.500 708.073 870.500 C 711.249 861.150, 719.494 836.962, 726.394 816.750 L 738.940 780 726.220 780.013 L 713.500 780.026 702.583 815.513 C 696.579 835.031, 691.374 851, 691.016 851 C 690.658 851, 689.569 848.413, 688.595 845.250 C 687.621 842.087, 682.498 826.112, 677.211 809.750 L 667.597 780 653.691 780 C 642.982 780, 639.895 780.287, 640.259 781.250 M 749 834 L 749 888 792.500 888 L 836 888 836 877 L 836 866 805.467 866 L 774.934 866 775.217 854.750 L 775.500 843.500 799.750 843.232 L 824 842.964 824 832.482 L 824 822 799.500 822 L 775 822 775 812 L 775 802 805.500 802 L 836 802 836 791 L 836 780 792.500 780 L 749 780 749 834 M 329.095 805.602 C 314.205 809.478, 305.447 812.724, 291.500 819.538 C 274.568 827.809, 265.637 833.531, 266.703 835.424 C 268.781 839.113, 290.626 864.507, 300.992 875.283 L 312.603 887.354 315.311 882.733 C 326.441 863.741, 336.234 837.570, 341.872 811.750 L 343.783 803 341.141 803.077 C 339.689 803.120, 334.268 804.256, 329.095 805.602 M 250.354 849.259 C 235.551 866.166, 227.561 898.573, 234.750 912.545 C 237.698 918.274, 244.967 924.644, 250.159 926.048 C 256.939 927.883, 266.791 926.755, 274.151 923.303 C 281.481 919.865, 293.982 910.120, 298.845 904.053 L 302.190 899.880 290.186 887.690 C 277.512 874.820, 266.659 862.608, 258.691 852.250 C 256.047 848.813, 253.731 846, 253.545 846 C 253.359 846, 251.923 847.467, 250.354 849.259 M 242.045 1063.092 C 226.073 1066.223, 215 1079.082, 215 1094.500 C 215 1111.822, 223.710 1119.915, 250 1127.019 C 268.276 1131.958, 273.480 1135.985, 271.060 1143.317 C 269.341 1148.526, 264.977 1150.516, 255.500 1150.414 C 246.331 1150.315, 239.118 1147.963, 230.787 1142.356 C 227.935 1140.437, 225.269 1138.785, 224.861 1138.684 C 224.454 1138.583, 221.122 1142.089, 217.458 1146.475 L 210.795 1154.451 214.647 1157.711 C 220.047 1162.280, 231.232 1167.619, 239.500 1169.574 C 249.732 1171.993, 263.887 1171.755, 271.941 1169.030 C 287.484 1163.770, 294.541 1154.043, 294.454 1138 C 294.402 1128.400, 292.642 1123.850, 286.838 1118.319 C 281.215 1112.961, 275.760 1110.661, 251.833 1103.559 C 238.648 1099.645, 234.740 1093.680, 240.868 1086.822 C 243.434 1083.950, 244.427 1083.568, 250.277 1083.195 C 257.990 1082.704, 264.683 1084.565, 273.322 1089.604 C 276.524 1091.472, 279.294 1093, 279.478 1093 C 279.662 1093, 282.440 1089.133, 285.650 1084.407 L 291.488 1075.813 288.994 1073.762 C 284.757 1070.277, 272.787 1065.061, 265.471 1063.511 C 257.837 1061.894, 248.967 1061.736, 242.045 1063.092 M 924.634 1063.586 C 906.654 1067.938, 891.194 1083.131, 885.612 1101.932 C 883.536 1108.925, 883.494 1124.639, 885.531 1132.458 C 895.544 1170.899, 944.663 1184.373, 980.250 1158.442 L 985 1154.981 985 1131.990 L 985 1109 962 1109 L 939 1109 939 1119 L 939 1129 950.500 1129 L 962 1129 962 1136.801 L 962 1144.601 957.250 1146.968 C 953.628 1148.772, 950.328 1149.441, 943.354 1149.782 C 930.754 1150.398, 925.393 1148.553, 917.836 1140.996 C 913.002 1136.162, 911.822 1134.225, 909.942 1128.033 C 905.972 1114.965, 908.488 1102.850, 917.116 1093.490 C 924.573 1085.400, 933.215 1082.473, 944.798 1084.114 C 951.556 1085.071, 959.898 1088.654, 963.763 1092.262 C 965.152 1093.557, 966.373 1094.011, 966.924 1093.437 C 967.417 1092.922, 970.809 1088.900, 974.461 1084.500 L 981.100 1076.500 977.934 1073.830 C 973.346 1069.962, 963.378 1065.301, 955.947 1063.549 C 947.976 1061.670, 932.474 1061.689, 924.634 1063.586 M 433.080 1065.719 C 430.296 1071.818, 389 1169.056, 389 1169.512 C 389 1169.780, 394.321 1170, 400.825 1170 L 412.650 1170 417.425 1157.981 L 422.201 1145.963 444.789 1146.231 L 467.378 1146.500 471.999 1158 L 476.620 1169.500 488.887 1169.781 C 500.271 1170.043, 501.113 1169.935, 500.575 1168.281 C 500.256 1167.302, 490.127 1143.325, 478.066 1115 L 456.136 1063.500 445.242 1063.219 L 434.349 1062.938 433.080 1065.719 M 305 1074.500 L 305 1085 321.500 1085 L 338 1085 338 1127.500 L 338 1170 349.500 1170 L 361 1170 361 1127.500 L 361 1085 377.500 1085 L 394 1085 394 1074.500 L 394 1064 349.500 1064 L 305 1064 305 1074.500 M 518 1117 L 518 1170 529.500 1170 L 541 1170 541 1149.500 L 541 1129 566.500 1129 L 592 1129 592 1118.517 L 592 1108.034 566.750 1107.767 L 541.500 1107.500 541.217 1096.250 L 540.934 1085 569.967 1085 L 599 1085 599 1074.500 L 599 1064 558.500 1064 L 518 1064 518 1117 M 617 1117 L 617 1170 629 1170 L 641 1170 641 1149.500 L 641 1129 666.500 1129 L 692 1129 692 1118.500 L 692 1108 666.500 1108 L 641 1108 641 1096.500 L 641 1085 670 1085 L 699 1085 699 1074.500 L 699 1064 658 1064 L 617 1064 617 1117 M 718 1117 L 718 1170 730 1170 L 742 1170 742 1117 L 742 1064 730 1064 L 718 1064 718 1117 M 768 1117 L 768 1170 779.487 1170 L 790.973 1170 791.237 1136.285 L 791.500 1102.571 817 1136.227 L 842.500 1169.883 852.750 1169.942 L 863 1170 863 1117 L 863 1064 851.500 1064 L 840 1064 840 1096 C 840 1113.600, 839.663 1127.973, 839.250 1127.941 C 838.837 1127.909, 827.700 1113.533, 814.500 1095.994 L 790.500 1064.107 779.250 1064.053 L 768 1064 768 1117 M 438.053 1107.202 C 434.615 1115.616, 431.573 1123.063, 431.294 1123.750 C 430.902 1124.714, 433.903 1125, 444.393 1125 C 451.877 1125, 458 1124.625, 458 1124.168 C 458 1122.964, 445.935 1093.651, 445.048 1092.702 C 444.639 1092.263, 441.491 1098.788, 438.053 1107.202" stroke="none" fill="#fbfbfb" fill-rule="evenodd"/></svg>