<svg xmlns="http://www.w3.org/2000/svg" viewBox="0 0 512 512" role="img" aria-labelledby="logoTitle logoDesc">
  <title id="logoTitle">GoLive Staffing logo</title>
  <desc id="logoDesc">Green stylised go live staffing wordmark with gold circular outline.</desc>
  <defs>
    <linearGradient id="ringGradient" x1="0%" y1="0%" x2="100%" y2="100%">
      <stop offset="0%" stop-color="#d6b66a" />
      <stop offset="100%" stop-color="#c89b3c" />
    </linearGradient>
  </defs>
  <rect width="512" height="512" rx="256" fill="#ffffff" opacity="0" />
  <path d="M256 40c118.9 0 216 97.1 216 216s-97.1 216-216 216S40 374.9 40 256 137.1 40 256 40z" fill="none" stroke="url(#ringGradient)" stroke-width="40" />
  <g fill="#54c82d">
    <path d="M168.4 338.6c-42.8 0-78.4-31.7-78.4-88.2 0-55.8 35.8-108.3 104.5-108.3 37.6 0 63.6 20 63.6 55.5 0 55.7-55.6 72.2-108.6 72.2 1.8 27 19.3 42.1 42.1 42.1 19.6 0 35.2-9.3 47.4-24l31.5 26.5c-18.9 27.8-49.9 44.2-102.1 44.2zm28.5-157c-24.5 0-45.4 18.7-50.1 46.2 34.9-.5 64.3-7.6 64.3-30.9 0-10.9-5.9-15.3-14.2-15.3z" />
    <path d="M302.5 152h55.1l-7.1 35.5h1.1c11.4-24.3 32.2-39.1 54.3-39.1 6.5 0 11.6 1 15.8 2.1l-11.5 56.8c-4.9-1.4-9.7-2.4-15.6-2.4-25.3 0-45.3 20.4-52.8 57.2l-17.2 84.9H264L302.5 152z" />
  </g>
  <g fill="#54c82d">
    <text x="167" y="388" font-family="'Poppins', 'Segoe UI', sans-serif" font-size="68" font-weight="600" letter-spacing="0.04em">LIVE</text>
    <text x="108" y="448" font-family="'Poppins', 'Segoe UI', sans-serif" font-size="68" font-weight="600" letter-spacing="0.02em">STAFFING</text>
  </g>
</svg>
